# Blender v2.82 (sub 7) OBJ File: 'PinballFrame.blend'
# www.blender.org
mtllib PinballFrame.mtl
o Rop-Right_Cube.004
v 2.500000 0.250000 -11.500000
v 2.500000 0.750000 -11.500000
v 4.500000 0.250000 -9.500000
v 4.500000 0.750000 -9.500000
v 4.500000 0.250000 -11.500000
v 4.500000 0.750000 -11.500000
v 4.500000 0.250000 -9.500000
v 2.500000 0.250000 -11.500000
v 4.248161 0.250000 -10.511255
v 3.511255 0.250000 -11.248161
v 2.500000 0.750000 -11.500000
v 4.500000 0.750000 -9.500000
v 3.511255 0.750000 -11.248161
v 4.248161 0.750000 -10.511255
vt 0.375000 0.750000
vt 0.625000 0.750000
vt 0.375000 0.750000
vt 0.625000 0.250000
vt 0.375000 0.500000
vt 0.375000 0.250000
vt 0.625000 0.500000
vt 0.656480 0.623593
vt 0.625000 0.750000
vt 0.375000 0.250000
vt 0.375000 0.781480
vt 0.625000 0.781480
vt 0.375000 1.000000
vt 0.625000 0.218520
vt 0.375000 0.218520
vt 0.343520 0.623593
vt 0.251407 0.531480
vt 0.875000 0.500000
vt 0.875000 0.500000
vt 0.748593 0.531480
vt 0.625000 0.250000
vt 0.625000 1.000000
vt 0.125000 0.500000
vt 0.125000 0.500000
vn 0.0000 0.0000 1.0000
vn 0.0000 0.0000 -1.0000
vn 1.0000 0.0000 0.0000
vn 0.0000 1.0000 0.0000
vn -0.9704 0.0000 0.2417
vn -0.7071 0.0000 0.7071
vn -0.2417 0.0000 0.9704
vn 0.0000 -1.0000 0.0000
usemtl None
s off
f 3/1/1 12/2/1 7/3/1
f 2/4/2 5/5/2 1/6/2
f 6/7/3 3/1/3 5/5/3
f 6/7/4 14/8/4 4/9/4
f 8/10/1 2/4/1 1/6/1
f 12/2/5 9/11/5 7/3/5
f 14/12/6 10/13/6 9/11/6
f 13/14/7 8/10/7 10/15/7
f 5/5/8 9/16/8 10/17/8
f 3/1/1 4/9/1 12/2/1
f 2/4/2 6/7/2 5/5/2
f 6/7/3 4/9/3 3/1/3
f 6/7/1 2/18/1 11/19/1
f 6/7/4 11/19/4 13/20/4
f 14/8/1 12/2/1 4/9/1
f 6/7/4 13/20/4 14/8/4
f 8/10/1 11/21/1 2/4/1
f 12/2/5 14/12/5 9/11/5
f 14/12/6 13/22/6 10/13/6
f 13/14/7 11/21/7 8/10/7
f 8/23/1 1/24/1 5/5/1
f 3/1/1 7/3/1 9/16/1
f 10/17/8 8/23/8 5/5/8
f 5/5/8 3/1/8 9/16/8
o Floor_Cube.008
v 5.000000 0.250000 -12.000000
v 5.000000 -0.250000 -12.000000
v 5.000000 0.250000 12.000000
v 5.000000 -0.250000 12.000000
v -5.000000 0.250000 -12.000000
v -5.000000 -0.250000 -12.000000
v -5.000000 0.250000 12.000000
v -5.000000 -0.250000 12.000000
vt 0.875000 0.500000
vt 0.625000 0.750000
vt 0.625000 0.500000
vt 0.375000 1.000000
vt 0.375000 0.750000
vt 0.625000 0.000000
vt 0.375000 0.250000
vt 0.375000 0.000000
vt 0.375000 0.500000
vt 0.125000 0.750000
vt 0.125000 0.500000
vt 0.625000 0.250000
vt 0.875000 0.750000
vt 0.625000 1.000000
vn 0.0000 1.0000 0.0000
vn 0.0000 0.0000 1.0000
vn -1.0000 0.0000 0.0000
vn 0.0000 -1.0000 0.0000
vn 1.0000 0.0000 0.0000
vn 0.0000 0.0000 -1.0000
usemtl Material.001
s off
f 19/25/9 17/26/9 15/27/9
f 17/26/10 22/28/10 18/29/10
f 21/30/11 20/31/11 22/32/11
f 16/33/12 22/34/12 20/35/12
f 15/27/13 18/29/13 16/33/13
f 19/36/14 16/33/14 20/31/14
f 19/25/9 21/37/9 17/26/9
f 17/26/10 21/38/10 22/28/10
f 21/30/11 19/36/11 20/31/11
f 16/33/12 18/29/12 22/34/12
f 15/27/13 17/26/13 18/29/13
f 19/36/14 15/27/14 16/33/14
o Top-Left_Cube.003
v -4.500000 0.250000 -9.500000
v -4.500000 0.750000 -9.500000
v -2.500000 0.250000 -11.500000
v -2.500000 0.750000 -11.500000
v -4.500000 0.250000 -11.500000
v -4.500000 0.750000 -11.500000
v -2.500000 0.250000 -11.500000
v -4.500000 0.250000 -9.500000
v -3.511255 0.250000 -11.248161
v -4.248161 0.250000 -10.511255
v -4.500000 0.750000 -9.500000
v -2.500000 0.750000 -11.500000
v -4.248161 0.750000 -10.511255
v -3.511255 0.750000 -11.248161
vt 0.375000 0.750000
vt 0.625000 0.750000
vt 0.375000 0.750000
vt 0.625000 0.250000
vt 0.375000 0.500000
vt 0.375000 0.250000
vt 0.625000 0.500000
vt 0.656480 0.623593
vt 0.625000 0.750000
vt 0.375000 0.250000
vt 0.375000 0.781480
vt 0.625000 0.781480
vt 0.375000 1.000000
vt 0.625000 0.218520
vt 0.375000 0.218520
vt 0.343520 0.623593
vt 0.251407 0.531480
vt 0.875000 0.500000
vt 0.875000 0.500000
vt 0.748593 0.531480
vt 0.625000 0.250000
vt 0.625000 1.000000
vt 0.125000 0.500000
vt 0.125000 0.500000
vn 0.0000 0.0000 1.0000
vn -1.0000 0.0000 0.0000
vn 0.0000 0.0000 -1.0000
vn 0.0000 1.0000 0.0000
vn 0.2417 0.0000 0.9704
vn 0.7071 0.0000 0.7071
vn 0.9704 0.0000 0.2417
vn 0.0000 -1.0000 0.0000
usemtl None
s off
f 25/39/15 34/40/15 29/41/15
f 24/42/16 27/43/16 23/44/16
f 28/45/17 25/39/17 27/43/17
f 28/45/18 36/46/18 26/47/18
f 30/48/15 24/42/15 23/44/15
f 34/40/19 31/49/19 29/41/19
f 36/50/20 32/51/20 31/49/20
f 35/52/21 30/48/21 32/53/21
f 27/43/22 31/54/22 32/55/22
f 25/39/15 26/47/15 34/40/15
f 24/42/16 28/45/16 27/43/16
f 28/45/17 26/47/17 25/39/17
f 28/45/15 24/56/15 33/57/15
f 28/45/18 33/57/18 35/58/18
f 36/46/15 34/40/15 26/47/15
f 28/45/18 35/58/18 36/46/18
f 30/48/15 33/59/15 24/42/15
f 34/40/19 36/50/19 31/49/19
f 36/50/20 35/60/20 32/51/20
f 35/52/21 33/59/21 30/48/21
f 30/61/15 23/62/15 27/43/15
f 25/39/15 29/41/15 31/54/15
f 32/55/22 30/61/22 27/43/22
f 27/43/22 25/39/22 31/54/22
o DEBUG-001_Cube
v 3.500000 0.814280 0.100000
v 3.500000 1.314280 0.100000
v -4.500000 0.814280 0.100000
v -4.500000 1.314280 0.100000
v 3.500000 0.814280 -0.100000
v 3.500000 1.314280 -0.100000
v -4.500000 0.814280 -0.100000
v -4.500000 1.314280 -0.100000
vt 0.625000 0.000000
vt 0.375000 0.250000
vt 0.375000 0.000000
vt 0.625000 0.250000
vt 0.375000 0.500000
vt 0.625000 0.500000
vt 0.375000 0.750000
vt 0.625000 0.750000
vt 0.375000 1.000000
vt 0.125000 0.750000
vt 0.125000 0.500000
vt 0.875000 0.500000
vt 0.625000 1.000000
vt 0.875000 0.750000
vn 0.0000 0.0000 1.0000
vn -1.0000 0.0000 0.0000
vn -0.0000 0.0000 -1.0000
vn 1.0000 0.0000 0.0000
vn 0.0000 -1.0000 0.0000
vn 0.0000 1.0000 0.0000
usemtl None
s off
f 38/63/23 39/64/23 37/65/23
f 40/66/24 43/67/24 39/64/24
f 44/68/25 41/69/25 43/67/25
f 42/70/26 37/71/26 41/69/26
f 43/67/27 37/72/27 39/73/27
f 40/74/28 42/70/28 44/68/28
f 38/63/23 40/66/23 39/64/23
f 40/66/24 44/68/24 43/67/24
f 44/68/25 42/70/25 41/69/25
f 42/70/26 38/75/26 37/71/26
f 43/67/27 41/69/27 37/72/27
f 40/74/28 38/76/28 42/70/28
o DEBUG-002_Cube.001
v -0.600000 0.814280 11.000000
v -0.600000 1.314280 11.000000
v -0.600000 0.814280 -11.000000
v -0.600000 1.314280 -11.000000
v -0.400000 0.814280 11.000000
v -0.400000 1.314280 11.000000
v -0.400000 0.814280 -11.000000
v -0.400000 1.314280 -11.000000
vt 0.625000 0.000000
vt 0.375000 0.250000
vt 0.375000 0.000000
vt 0.625000 0.250000
vt 0.375000 0.500000
vt 0.625000 0.500000
vt 0.375000 0.750000
vt 0.625000 0.750000
vt 0.375000 1.000000
vt 0.125000 0.750000
vt 0.125000 0.500000
vt 0.875000 0.500000
vt 0.625000 1.000000
vt 0.875000 0.750000
vn -1.0000 0.0000 0.0000
vn 0.0000 0.0000 -1.0000
vn 1.0000 0.0000 0.0000
vn 0.0000 0.0000 1.0000
vn 0.0000 -1.0000 0.0000
vn 0.0000 1.0000 0.0000
usemtl None
s off
f 46/77/29 47/78/29 45/79/29
f 48/80/30 51/81/30 47/78/30
f 52/82/31 49/83/31 51/81/31
f 50/84/32 45/85/32 49/83/32
f 51/81/33 45/86/33 47/87/33
f 48/88/34 50/84/34 52/82/34
f 46/77/29 48/80/29 47/78/29
f 48/80/30 52/82/30 51/81/30
f 52/82/31 50/84/31 49/83/31
f 50/84/32 46/89/32 45/85/32
f 51/81/33 49/83/33 45/86/33
f 48/88/34 46/90/34 50/84/34
o Left-Flipper_Cube.005
v 1.730450 0.250000 8.422905
v 1.730450 0.750000 8.422905
v 3.578208 0.250000 7.657538
v 3.578208 0.750000 7.657538
v 1.921791 0.250000 8.884845
v 1.921791 0.750000 8.884845
v 3.769550 0.250000 8.119478
v 3.769550 0.750000 8.119478
v -5.000000 0.250000 11.999999
v -5.000000 0.750000 11.999999
v -5.000000 0.250000 11.499999
v -5.000000 0.750000 11.499999
v 3.500000 0.250000 11.999999
v 3.500000 0.750000 11.999999
v 3.500000 0.250000 11.499999
v 3.500000 0.750000 11.499999
v -5.000001 0.250000 -11.500001
v -5.000001 0.750000 -11.500001
v -5.000000 0.250000 -11.999999
v -5.000000 0.750000 -11.999999
v 5.000000 0.250000 -11.499999
v 5.000000 0.750000 -11.499999
v 5.000000 0.250000 -11.999999
v 5.000000 0.750000 -11.999999
v -4.500000 0.250000 11.499999
v -4.500000 0.750000 11.499999
v -5.000000 0.250000 11.499999
v -5.000000 0.750000 11.499999
v -4.500001 0.250000 -11.500001
v -4.500001 0.750000 -11.500001
v -5.000001 0.250000 -11.500001
v -5.000001 0.750000 -11.500001
v 5.000001 0.250000 11.999999
v 5.000001 0.750000 11.999999
v 4.500000 0.250000 11.999999
v 4.500000 0.750000 11.999999
v 4.999999 0.250000 -11.500003
v 4.999999 0.750000 -11.500003
v 4.499999 0.250000 -11.500001
v 4.499999 0.750000 -11.500001
v 4.000000 0.250000 11.999999
v 4.000000 0.750000 11.999999
v 3.500000 0.250000 12.000000
v 3.500000 0.750000 12.000000
v 3.999999 0.250000 -4.000000
v 3.999999 0.750000 -4.000000
v 3.500000 0.250000 -4.000001
v 3.500000 0.750000 -4.000001
v -2.921791 0.250000 8.884845
v -2.921791 0.750000 8.884845
v -4.769550 0.250000 8.119478
v -4.769550 0.750000 8.119478
v -2.730449 0.250000 8.422905
v -2.730449 0.750000 8.422905
v -4.578208 0.250000 7.657538
v -4.578208 0.750000 7.657538
vt 0.625000 0.000000
vt 0.375000 0.250000
vt 0.375000 0.000000
vt 0.625000 0.250000
vt 0.375000 0.500000
vt 0.625000 0.500000
vt 0.375000 0.750000
vt 0.625000 0.750000
vt 0.375000 1.000000
vt 0.125000 0.750000
vt 0.125000 0.500000
vt 0.875000 0.500000
vt 0.625000 0.000000
vt 0.375000 0.250000
vt 0.375000 0.000000
vt 0.625000 0.250000
vt 0.375000 0.500000
vt 0.625000 0.500000
vt 0.375000 0.750000
vt 0.625000 0.750000
vt 0.375000 1.000000
vt 0.125000 0.750000
vt 0.125000 0.500000
vt 0.875000 0.750000
vt 0.625000 0.000000
vt 0.375000 0.250000
vt 0.375000 0.000000
vt 0.625000 0.250000
vt 0.375000 0.500000
vt 0.625000 0.500000
vt 0.375000 0.750000
vt 0.625000 0.750000
vt 0.375000 1.000000
vt 0.125000 0.750000
vt 0.125000 0.500000
vt 0.875000 0.750000
vt 0.625000 0.000000
vt 0.375000 0.250000
vt 0.375000 0.000000
vt 0.625000 0.250000
vt 0.375000 0.500000
vt 0.625000 0.500000
vt 0.375000 0.750000
vt 0.625000 0.750000
vt 0.375000 1.000000
vt 0.125000 0.500000
vt 0.125000 0.750000
vt 0.875000 0.500000
vt 0.625000 0.000000
vt 0.375000 0.250000
vt 0.375000 0.000000
vt 0.625000 0.250000
vt 0.375000 0.500000
vt 0.625000 0.500000
vt 0.375000 0.750000
vt 0.625000 0.750000
vt 0.375000 1.000000
vt 0.125000 0.500000
vt 0.125000 0.750000
vt 0.875000 0.500000
vt 0.625000 0.000000
vt 0.375000 0.250000
vt 0.375000 0.000000
vt 0.625000 0.250000
vt 0.375000 0.500000
vt 0.625000 0.500000
vt 0.375000 0.750000
vt 0.625000 0.750000
vt 0.375000 1.000000
vt 0.125000 0.500000
vt 0.125000 0.750000
vt 0.875000 0.500000
vt 0.625000 0.000000
vt 0.375000 0.250000
vt 0.375000 0.000000
vt 0.625000 0.250000
vt 0.375000 0.500000
vt 0.625000 0.500000
vt 0.375000 0.750000
vt 0.625000 0.750000
vt 0.375000 1.000000
vt 0.125000 0.500000
vt 0.125000 0.750000
vt 0.875000 0.500000
vt 0.625000 1.000000
vt 0.875000 0.750000
vt 0.625000 1.000000
vt 0.875000 0.500000
vt 0.625000 1.000000
vt 0.875000 0.500000
vt 0.625000 1.000000
vt 0.875000 0.750000
vt 0.625000 1.000000
vt 0.875000 0.750000
vt 0.625000 1.000000
vt 0.875000 0.750000
vt 0.625000 1.000000
vt 0.875000 0.750000
vn -0.3827 0.0000 -0.9239
vn 0.9239 0.0000 -0.3827
vn 0.3827 0.0000 0.9239
vn -0.9239 0.0000 0.3827
vn 0.0000 -1.0000 0.0000
vn 0.0000 1.0000 0.0000
vn -1.0000 0.0000 -0.0000
vn 0.0000 0.0000 -1.0000
vn 1.0000 0.0000 0.0000
vn 0.0000 0.0000 1.0000
vn -0.3827 0.0000 0.9239
vn -0.9239 0.0000 -0.3827
vn 0.3827 0.0000 -0.9239
vn 0.9239 0.0000 0.3827
usemtl None
s off
f 54/91/35 55/92/35 53/93/35
f 56/94/36 59/95/36 55/92/36
f 60/96/37 57/97/37 59/95/37
f 58/98/38 53/99/38 57/97/38
f 59/95/39 53/100/39 55/101/39
f 56/102/40 58/98/40 60/96/40
f 62/103/41 63/104/41 61/105/41
f 64/106/42 67/107/42 63/104/42
f 68/108/43 65/109/43 67/107/43
f 66/110/44 61/111/44 65/109/44
f 67/107/39 61/112/39 63/113/39
f 68/108/40 62/114/40 66/110/40
f 70/115/41 71/116/41 69/117/41
f 72/118/42 75/119/42 71/116/42
f 76/120/43 73/121/43 75/119/43
f 74/122/44 69/123/44 73/121/44
f 75/119/39 69/124/39 71/125/39
f 76/120/40 70/126/40 74/122/40
f 78/127/44 79/128/44 77/129/44
f 80/130/41 83/131/41 79/128/41
f 84/132/42 81/133/42 83/131/42
f 82/134/43 77/135/43 81/133/43
f 79/136/39 81/133/39 77/137/39
f 80/138/40 82/134/40 84/132/40
f 86/139/44 87/140/44 85/141/44
f 88/142/41 91/143/41 87/140/41
f 92/144/42 89/145/42 91/143/42
f 90/146/43 85/147/43 89/145/43
f 87/148/39 89/145/39 85/149/39
f 88/150/40 90/146/40 92/144/40
f 94/151/44 95/152/44 93/153/44
f 96/154/41 99/155/41 95/152/41
f 100/156/42 97/157/42 99/155/42
f 98/158/43 93/159/43 97/157/43
f 95/160/39 97/157/39 93/161/39
f 96/162/40 98/158/40 100/156/40
f 102/163/45 103/164/45 101/165/45
f 104/166/46 107/167/46 103/164/46
f 108/168/47 105/169/47 107/167/47
f 106/170/48 101/171/48 105/169/48
f 103/172/39 105/169/39 101/173/39
f 104/174/40 106/170/40 108/168/40
f 54/91/35 56/94/35 55/92/35
f 56/94/36 60/96/36 59/95/36
f 60/96/37 58/98/37 57/97/37
f 58/98/38 54/175/38 53/99/38
f 59/95/39 57/97/39 53/100/39
f 56/102/40 54/176/40 58/98/40
f 62/103/41 64/106/41 63/104/41
f 64/106/42 68/108/42 67/107/42
f 68/108/43 66/110/43 65/109/43
f 66/110/44 62/177/44 61/111/44
f 67/107/39 65/109/39 61/112/39
f 68/108/40 64/178/40 62/114/40
f 70/115/41 72/118/41 71/116/41
f 72/118/42 76/120/42 75/119/42
f 76/120/43 74/122/43 73/121/43
f 74/122/44 70/179/44 69/123/44
f 75/119/39 73/121/39 69/124/39
f 76/120/40 72/180/40 70/126/40
f 78/127/44 80/130/44 79/128/44
f 80/130/41 84/132/41 83/131/41
f 84/132/42 82/134/42 81/133/42
f 82/134/43 78/181/43 77/135/43
f 79/136/39 83/131/39 81/133/39
f 80/138/40 78/182/40 82/134/40
f 86/139/44 88/142/44 87/140/44
f 88/142/41 92/144/41 91/143/41
f 92/144/42 90/146/42 89/145/42
f 90/146/43 86/183/43 85/147/43
f 87/148/39 91/143/39 89/145/39
f 88/150/40 86/184/40 90/146/40
f 94/151/44 96/154/44 95/152/44
f 96/154/41 100/156/41 99/155/41
f 100/156/42 98/158/42 97/157/42
f 98/158/43 94/185/43 93/159/43
f 95/160/39 99/155/39 97/157/39
f 96/162/40 94/186/40 98/158/40
f 102/163/45 104/166/45 103/164/45
f 104/166/46 108/168/46 107/167/46
f 108/168/47 106/170/47 105/169/47
f 106/170/48 102/187/48 101/171/48
f 103/172/39 107/167/39 105/169/39
f 104/174/40 102/188/40 106/170/40
