# Blender v2.80 (sub 75) OBJ File: 'PinballFrame.blend'
# www.blender.org
mtllib PinballFrame.mtl
o Floor_Cube
v 8.000000 0.250000 -15.000000
v 8.000000 -0.250000 -15.000000
v 8.000000 0.250000 15.000000
v 8.000000 -0.250000 15.000000
v -8.000000 0.250000 -15.000000
v -8.000000 -0.250000 -15.000000
v -8.000000 0.250000 15.000000
v -8.000000 -0.250000 15.000000
vt 0.875000 0.500000
vt 0.625000 0.750000
vt 0.625000 0.500000
vt 0.375000 1.000000
vt 0.375000 0.750000
vt 0.625000 0.000000
vt 0.375000 0.250000
vt 0.375000 0.000000
vt 0.375000 0.500000
vt 0.125000 0.750000
vt 0.125000 0.500000
vt 0.625000 0.250000
vt 0.875000 0.750000
vt 0.625000 1.000000
vn 0.0000 1.0000 0.0000
vn 0.0000 0.0000 1.0000
vn -1.0000 0.0000 0.0000
vn 0.0000 -1.0000 0.0000
vn 1.0000 0.0000 0.0000
vn 0.0000 0.0000 -1.0000
usemtl Material
s off
f 5/1/1 3/2/1 1/3/1
f 3/2/2 8/4/2 4/5/2
f 7/6/3 6/7/3 8/8/3
f 2/9/4 8/10/4 6/11/4
f 1/3/5 4/5/5 2/9/5
f 5/12/6 2/9/6 6/7/6
f 5/1/1 7/13/1 3/2/1
f 3/2/2 7/14/2 8/4/2
f 7/6/3 5/12/3 6/7/3
f 2/9/4 4/5/4 8/10/4
f 1/3/5 3/2/5 4/5/5
f 5/12/6 1/3/6 2/9/6
o Frame_Cube.003
v -8.000000 0.250000 15.000000
v -8.000000 0.750000 15.000000
v -8.000000 0.250000 -15.000000
v -8.000000 0.750000 -15.000000
v -7.500000 0.250000 15.000000
v -7.500000 0.750000 15.000000
v -7.500000 0.250000 -15.000000
v -7.500000 0.750000 -15.000000
v 7.500000 0.250000 15.000000
v 7.500000 0.750000 15.000000
v 7.500000 0.250000 -15.000000
v 7.500000 0.750000 -15.000000
v 8.000000 0.250000 15.000000
v 8.000000 0.750000 15.000000
v 8.000000 0.250000 -15.000000
v 8.000000 0.750000 -15.000000
v -7.500000 0.250000 -14.500001
v -7.500000 0.750000 -14.500001
v -7.500000 0.250000 -15.000002
v -7.500000 0.750000 -15.000002
v 7.500000 0.250000 -14.500001
v 7.500000 0.750000 -14.500001
v 7.500000 0.250000 -15.000002
v 7.500000 0.750000 -15.000002
vt 0.625000 0.000000
vt 0.375000 0.250000
vt 0.375000 0.000000
vt 0.625000 0.250000
vt 0.375000 0.500000
vt 0.625000 0.500000
vt 0.375000 0.750000
vt 0.625000 0.750000
vt 0.375000 1.000000
vt 0.125000 0.750000
vt 0.125000 0.500000
vt 0.875000 0.500000
vt 0.625000 1.000000
vt 0.875000 0.750000
vt 0.625000 0.000000
vt 0.375000 0.250000
vt 0.375000 0.000000
vt 0.625000 0.250000
vt 0.375000 0.500000
vt 0.625000 0.500000
vt 0.375000 0.750000
vt 0.625000 0.750000
vt 0.375000 1.000000
vt 0.125000 0.750000
vt 0.125000 0.500000
vt 0.875000 0.500000
vt 0.625000 1.000000
vt 0.875000 0.750000
vt 0.625000 0.000000
vt 0.375000 0.250000
vt 0.375000 0.000000
vt 0.625000 0.250000
vt 0.375000 0.500000
vt 0.625000 0.500000
vt 0.375000 0.750000
vt 0.625000 0.750000
vt 0.375000 1.000000
vt 0.125000 0.750000
vt 0.125000 0.500000
vt 0.875000 0.500000
vt 0.625000 1.000000
vt 0.875000 0.750000
vn -1.0000 0.0000 0.0000
vn 0.0000 0.0000 -1.0000
vn 1.0000 0.0000 0.0000
vn 0.0000 0.0000 1.0000
vn 0.0000 -1.0000 0.0000
vn 0.0000 1.0000 0.0000
usemtl None
s off
f 10/15/7 11/16/7 9/17/7
f 12/18/8 15/19/8 11/16/8
f 16/20/9 13/21/9 15/19/9
f 14/22/10 9/23/10 13/21/10
f 15/19/11 9/24/11 11/25/11
f 12/26/12 14/22/12 16/20/12
f 10/15/7 12/18/7 11/16/7
f 12/18/8 16/20/8 15/19/8
f 16/20/9 14/22/9 13/21/9
f 14/22/10 10/27/10 9/23/10
f 15/19/11 13/21/11 9/24/11
f 12/26/12 10/28/12 14/22/12
f 18/29/7 19/30/7 17/31/7
f 20/32/8 23/33/8 19/30/8
f 24/34/9 21/35/9 23/33/9
f 22/36/10 17/37/10 21/35/10
f 23/33/11 17/38/11 19/39/11
f 20/40/12 22/36/12 24/34/12
f 18/29/7 20/32/7 19/30/7
f 20/32/8 24/34/8 23/33/8
f 24/34/9 22/36/9 21/35/9
f 22/36/10 18/41/10 17/37/10
f 23/33/11 21/35/11 17/38/11
f 20/40/12 18/42/12 22/36/12
f 26/43/7 27/44/7 25/45/7
f 28/46/8 31/47/8 27/44/8
f 32/48/9 29/49/9 31/47/9
f 30/50/10 25/51/10 29/49/10
f 31/47/11 25/52/11 27/53/11
f 28/54/12 30/50/12 32/48/12
f 26/43/7 28/46/7 27/44/7
f 28/46/8 32/48/8 31/47/8
f 32/48/9 30/50/9 29/49/9
f 30/50/10 26/55/10 25/51/10
f 31/47/11 29/49/11 25/52/11
f 28/54/12 26/56/12 30/50/12
o Inner-Pipe_Cube.001
v 6.500000 0.250000 15.000000
v 6.500000 0.750000 15.000000
v 6.500000 0.250000 5.000000
v 6.500000 0.750000 5.000000
v 7.000000 0.250000 15.000000
v 7.000000 0.750000 15.000000
v 7.000000 0.250000 5.000000
v 7.000000 0.750000 5.000000
vt 0.625000 0.000000
vt 0.375000 0.250000
vt 0.375000 0.000000
vt 0.625000 0.250000
vt 0.375000 0.500000
vt 0.625000 0.500000
vt 0.375000 0.750000
vt 0.625000 0.750000
vt 0.375000 1.000000
vt 0.125000 0.750000
vt 0.125000 0.500000
vt 0.875000 0.500000
vt 0.625000 1.000000
vt 0.875000 0.750000
vn -1.0000 0.0000 0.0000
vn 0.0000 0.0000 -1.0000
vn 1.0000 0.0000 0.0000
vn 0.0000 0.0000 1.0000
vn 0.0000 -1.0000 0.0000
vn 0.0000 1.0000 0.0000
usemtl None
s off
f 34/57/13 35/58/13 33/59/13
f 36/60/14 39/61/14 35/58/14
f 40/62/15 37/63/15 39/61/15
f 38/64/16 33/65/16 37/63/16
f 39/61/17 33/66/17 35/67/17
f 36/68/18 38/64/18 40/62/18
f 34/57/13 36/60/13 35/58/13
f 36/60/14 40/62/14 39/61/14
f 40/62/15 38/64/15 37/63/15
f 38/64/16 34/69/16 33/65/16
f 39/61/17 37/63/17 33/66/17
f 36/68/18 34/70/18 38/64/18
o Cube_Cube.009
v 5.500000 0.250000 -14.500000
v 5.500000 0.750000 -14.500000
v 7.500000 0.250000 -12.500000
v 7.500000 0.750000 -12.500000
v 7.500000 0.250000 -14.500000
v 7.500000 0.750000 -14.500000
v 7.500000 0.250000 -12.500000
v 5.500000 0.250000 -14.500000
v 5.500000 0.750000 -14.500000
v 7.500000 0.750000 -12.500000
vt 0.375000 0.750000
vt 0.625000 0.750000
vt 0.375000 0.750000
vt 0.625000 0.250000
vt 0.375000 0.500000
vt 0.375000 0.250000
vt 0.625000 0.500000
vt 0.875000 0.500000
vt 0.375000 0.250000
vt 0.375000 1.000000
vt 0.125000 0.500000
vt 0.625000 0.750000
vt 0.875000 0.500000
vt 0.625000 0.250000
vt 0.625000 1.000000
vt 0.125000 0.500000
vn 0.0000 0.0000 1.0000
vn 0.0000 0.0000 -1.0000
vn 1.0000 0.0000 0.0000
vn 0.0000 1.0000 0.0000
vn -0.7071 0.0000 0.7071
vn 0.0000 -1.0000 0.0000
usemtl None
s off
f 43/71/19 50/72/19 47/73/19
f 42/74/20 45/75/20 41/76/20
f 46/77/21 43/71/21 45/75/21
f 46/77/22 49/78/22 50/72/22
f 48/79/19 42/74/19 41/76/19
f 50/72/23 48/80/23 47/73/23
f 45/75/24 43/71/24 48/81/24
f 43/71/19 44/82/19 50/72/19
f 42/74/20 46/77/20 45/75/20
f 46/77/21 44/82/21 43/71/21
f 46/77/19 42/83/19 49/78/19
f 50/72/19 44/82/19 46/77/19
f 48/79/19 49/84/19 42/74/19
f 50/72/23 49/85/23 48/80/23
f 48/81/19 41/86/19 45/75/19
f 43/71/19 47/73/19 48/81/19
o Cube.001_Cube.010
v -7.500000 0.250000 -12.500000
v -7.500000 0.750000 -12.500000
v -5.500000 0.250000 -14.500000
v -5.500000 0.750000 -14.500000
v -7.500000 0.250000 -14.500000
v -7.500000 0.750000 -14.500000
v -5.500000 0.250000 -14.500000
v -7.500000 0.250000 -12.500000
v -7.500000 0.750000 -12.500000
v -5.500000 0.750000 -14.500000
vt 0.375000 0.750000
vt 0.625000 0.750000
vt 0.375000 0.750000
vt 0.625000 0.250000
vt 0.375000 0.500000
vt 0.375000 0.250000
vt 0.625000 0.500000
vt 0.875000 0.500000
vt 0.375000 0.250000
vt 0.375000 1.000000
vt 0.125000 0.500000
vt 0.625000 0.750000
vt 0.875000 0.500000
vt 0.625000 0.250000
vt 0.625000 1.000000
vt 0.125000 0.500000
vn 0.0000 0.0000 1.0000
vn -1.0000 0.0000 0.0000
vn 0.0000 0.0000 -1.0000
vn 0.0000 1.0000 0.0000
vn 0.7071 0.0000 0.7071
vn 0.0000 -1.0000 0.0000
usemtl None
s off
f 53/87/25 60/88/25 57/89/25
f 52/90/26 55/91/26 51/92/26
f 56/93/27 53/87/27 55/91/27
f 56/93/28 59/94/28 60/88/28
f 58/95/25 52/90/25 51/92/25
f 60/88/29 58/96/29 57/89/29
f 55/91/30 53/87/30 58/97/30
f 53/87/25 54/98/25 60/88/25
f 52/90/26 56/93/26 55/91/26
f 56/93/27 54/98/27 53/87/27
f 56/93/25 52/99/25 59/94/25
f 60/88/25 54/98/25 56/93/25
f 58/95/25 59/100/25 52/90/25
f 60/88/29 59/101/29 58/96/29
f 58/97/25 51/102/25 55/91/25
f 53/87/25 57/89/25 58/97/25
