# Blender v2.82 (sub 7) OBJ File: 'PinballFrame.blend'
# www.blender.org
mtllib PinballFrame.mtl
o Floor_Cube.008
v 5.000000 0.250000 -12.000000
v 5.000000 -0.250000 -12.000000
v 5.000000 0.250000 12.000000
v 5.000000 -0.250000 12.000000
v -5.000000 0.250000 -12.000000
v -5.000000 -0.250000 -12.000000
v -5.000000 0.250000 12.000000
v -5.000000 -0.250000 12.000000
vt 0.875000 0.500000
vt 0.625000 0.750000
vt 0.625000 0.500000
vt 0.375000 1.000000
vt 0.375000 0.750000
vt 0.625000 0.000000
vt 0.375000 0.250000
vt 0.375000 0.000000
vt 0.375000 0.500000
vt 0.125000 0.750000
vt 0.125000 0.500000
vt 0.625000 0.250000
vt 0.875000 0.750000
vt 0.625000 1.000000
vn 0.0000 1.0000 0.0000
vn 0.0000 0.0000 1.0000
vn -1.0000 0.0000 0.0000
vn 0.0000 -1.0000 0.0000
vn 1.0000 0.0000 0.0000
vn 0.0000 0.0000 -1.0000
usemtl Material.001
s off
f 5/1/1 3/2/1 1/3/1
f 3/2/2 8/4/2 4/5/2
f 7/6/3 6/7/3 8/8/3
f 2/9/4 8/10/4 6/11/4
f 1/3/5 4/5/5 2/9/5
f 5/12/6 2/9/6 6/7/6
f 5/1/1 7/13/1 3/2/1
f 3/2/2 7/14/2 8/4/2
f 7/6/3 5/12/3 6/7/3
f 2/9/4 4/5/4 8/10/4
f 1/3/5 3/2/5 4/5/5
f 5/12/6 1/3/6 2/9/6
o Left-Flipper_Cube.005
v 1.730450 0.250000 8.422905
v 1.730450 0.750000 8.422905
v 3.578208 0.250000 7.657538
v 3.578208 0.750000 7.657538
v 1.921791 0.250000 8.884845
v 1.921791 0.750000 8.884845
v 3.769550 0.250000 8.119478
v 3.769550 0.750000 8.119478
v -5.000000 0.250000 11.999999
v -5.000000 0.750000 11.999999
v -5.000000 0.250000 11.499999
v -5.000000 0.750000 11.499999
v 3.500000 0.250000 11.999999
v 3.500000 0.750000 11.999999
v 3.500000 0.250000 11.499999
v 3.500000 0.750000 11.499999
v -5.000001 0.250000 -11.500001
v -5.000001 0.750000 -11.500001
v -5.000000 0.250000 -11.999999
v -5.000000 0.750000 -11.999999
v 5.000000 0.250000 -11.499999
v 5.000000 0.750000 -11.499999
v 5.000000 0.250000 -11.999999
v 5.000000 0.750000 -11.999999
v -4.500000 0.250000 11.499999
v -4.500000 0.750000 11.499999
v -5.000000 0.250000 11.499999
v -5.000000 0.750000 11.499999
v -4.500001 0.250000 -11.500001
v -4.500001 0.750000 -11.500001
v -5.000001 0.250000 -11.500001
v -5.000001 0.750000 -11.500001
v 5.000001 0.250000 11.999999
v 5.000001 0.750000 11.999999
v 4.500000 0.250000 11.999999
v 4.500000 0.750000 11.999999
v 4.999999 0.250000 -11.500003
v 4.999999 0.750000 -11.500003
v 4.499999 0.250000 -11.500001
v 4.499999 0.750000 -11.500001
v 4.000000 0.250000 11.999999
v 4.000000 0.750000 11.999999
v 3.500000 0.250000 12.000000
v 3.500000 0.750000 12.000000
v 3.999999 0.250000 -4.000000
v 3.999999 0.750000 -4.000000
v 3.500000 0.250000 -4.000001
v 3.500000 0.750000 -4.000001
v -2.921791 0.250000 8.884845
v -2.921791 0.750000 8.884845
v -4.769550 0.250000 8.119478
v -4.769550 0.750000 8.119478
v -2.730449 0.250000 8.422905
v -2.730449 0.750000 8.422905
v -4.578208 0.250000 7.657538
v -4.578208 0.750000 7.657538
v 2.500000 0.250000 -11.499997
v 2.500000 0.750000 -11.499997
v 4.500000 0.250000 -9.499999
v 4.500000 0.750000 -9.499999
v 4.500000 0.250000 -11.499999
v 4.500000 0.750000 -11.499999
v 4.500000 0.250000 -9.499999
v 2.500000 0.250000 -11.499997
v 4.248161 0.250000 -10.511254
v 3.511255 0.250000 -11.248160
v 2.500000 0.750000 -11.499997
v 4.500000 0.750000 -9.499999
v 3.511255 0.750000 -11.248160
v 4.248161 0.750000 -10.511254
v -4.499999 0.250000 -9.499999
v -4.499999 0.750000 -9.499999
v -2.500000 0.250000 -11.500001
v -2.500000 0.750000 -11.500001
v -4.500000 0.250000 -11.499999
v -4.500000 0.750000 -11.499999
v -2.500000 0.250000 -11.500001
v -4.499999 0.250000 -9.499999
v -3.511255 0.250000 -11.248162
v -4.248161 0.250000 -10.511254
v -4.499999 0.750000 -9.499999
v -2.500000 0.750000 -11.500001
v -4.248161 0.750000 -10.511254
v -3.511255 0.750000 -11.248162
vt 0.625000 0.000000
vt 0.375000 0.250000
vt 0.375000 0.000000
vt 0.625000 0.250000
vt 0.375000 0.500000
vt 0.625000 0.500000
vt 0.375000 0.750000
vt 0.625000 0.750000
vt 0.375000 1.000000
vt 0.125000 0.750000
vt 0.125000 0.500000
vt 0.875000 0.500000
vt 0.625000 0.000000
vt 0.375000 0.250000
vt 0.375000 0.000000
vt 0.625000 0.250000
vt 0.375000 0.500000
vt 0.625000 0.500000
vt 0.375000 0.750000
vt 0.625000 0.750000
vt 0.375000 1.000000
vt 0.125000 0.750000
vt 0.125000 0.500000
vt 0.875000 0.750000
vt 0.625000 0.000000
vt 0.375000 0.250000
vt 0.375000 0.000000
vt 0.625000 0.250000
vt 0.375000 0.500000
vt 0.625000 0.500000
vt 0.375000 0.750000
vt 0.625000 0.750000
vt 0.375000 1.000000
vt 0.125000 0.750000
vt 0.125000 0.500000
vt 0.875000 0.750000
vt 0.625000 0.000000
vt 0.375000 0.250000
vt 0.375000 0.000000
vt 0.625000 0.250000
vt 0.375000 0.500000
vt 0.625000 0.500000
vt 0.375000 0.750000
vt 0.625000 0.750000
vt 0.375000 1.000000
vt 0.125000 0.500000
vt 0.125000 0.750000
vt 0.875000 0.500000
vt 0.625000 0.000000
vt 0.375000 0.250000
vt 0.375000 0.000000
vt 0.625000 0.250000
vt 0.375000 0.500000
vt 0.625000 0.500000
vt 0.375000 0.750000
vt 0.625000 0.750000
vt 0.375000 1.000000
vt 0.125000 0.500000
vt 0.125000 0.750000
vt 0.875000 0.500000
vt 0.625000 0.000000
vt 0.375000 0.250000
vt 0.375000 0.000000
vt 0.625000 0.250000
vt 0.375000 0.500000
vt 0.625000 0.500000
vt 0.375000 0.750000
vt 0.625000 0.750000
vt 0.375000 1.000000
vt 0.125000 0.500000
vt 0.125000 0.750000
vt 0.875000 0.500000
vt 0.625000 0.000000
vt 0.375000 0.250000
vt 0.375000 0.000000
vt 0.625000 0.250000
vt 0.375000 0.500000
vt 0.625000 0.500000
vt 0.375000 0.750000
vt 0.625000 0.750000
vt 0.375000 1.000000
vt 0.125000 0.500000
vt 0.125000 0.750000
vt 0.875000 0.500000
vt 0.375000 0.750000
vt 0.625000 0.750000
vt 0.375000 0.750000
vt 0.625000 0.250000
vt 0.375000 0.500000
vt 0.375000 0.250000
vt 0.625000 0.500000
vt 0.656480 0.623593
vt 0.625000 0.750000
vt 0.375000 0.250000
vt 0.375000 0.781480
vt 0.625000 0.781480
vt 0.375000 1.000000
vt 0.625000 0.218520
vt 0.375000 0.218520
vt 0.343520 0.623593
vt 0.251407 0.531480
vt 0.375000 0.750000
vt 0.625000 0.750000
vt 0.375000 0.750000
vt 0.625000 0.250000
vt 0.375000 0.500000
vt 0.375000 0.250000
vt 0.625000 0.500000
vt 0.656480 0.623593
vt 0.625000 0.750000
vt 0.375000 0.250000
vt 0.375000 0.781480
vt 0.625000 0.781480
vt 0.375000 1.000000
vt 0.625000 0.218520
vt 0.375000 0.218520
vt 0.343520 0.623593
vt 0.251407 0.531480
vt 0.625000 1.000000
vt 0.875000 0.750000
vt 0.625000 1.000000
vt 0.875000 0.500000
vt 0.625000 1.000000
vt 0.875000 0.500000
vt 0.625000 1.000000
vt 0.875000 0.750000
vt 0.625000 1.000000
vt 0.875000 0.750000
vt 0.625000 1.000000
vt 0.875000 0.750000
vt 0.625000 1.000000
vt 0.875000 0.750000
vt 0.875000 0.500000
vt 0.875000 0.500000
vt 0.748593 0.531480
vt 0.625000 0.250000
vt 0.625000 1.000000
vt 0.125000 0.500000
vt 0.125000 0.500000
vt 0.875000 0.500000
vt 0.875000 0.500000
vt 0.748593 0.531480
vt 0.625000 0.250000
vt 0.625000 1.000000
vt 0.125000 0.500000
vt 0.125000 0.500000
vn -0.3827 0.0000 -0.9239
vn 0.9239 0.0000 -0.3827
vn 0.3827 0.0000 0.9239
vn -0.9239 0.0000 0.3827
vn 0.0000 -1.0000 0.0000
vn 0.0000 1.0000 0.0000
vn -1.0000 0.0000 -0.0000
vn 0.0000 0.0000 -1.0000
vn 1.0000 0.0000 0.0000
vn 0.0000 0.0000 1.0000
vn -0.3827 0.0000 0.9239
vn -0.9239 0.0000 -0.3827
vn 0.3827 0.0000 -0.9239
vn 0.9239 0.0000 0.3827
vn -0.9704 0.0000 0.2417
vn -0.7071 0.0000 0.7071
vn -0.2417 0.0000 0.9704
vn 0.2417 0.0000 0.9704
vn 0.7071 0.0000 0.7071
vn 0.9704 0.0000 0.2417
usemtl None
s off
f 10/15/7 11/16/7 9/17/7
f 12/18/8 15/19/8 11/16/8
f 16/20/9 13/21/9 15/19/9
f 14/22/10 9/23/10 13/21/10
f 15/19/11 9/24/11 11/25/11
f 12/26/12 14/22/12 16/20/12
f 18/27/13 19/28/13 17/29/13
f 20/30/14 23/31/14 19/28/14
f 24/32/15 21/33/15 23/31/15
f 22/34/16 17/35/16 21/33/16
f 23/31/11 17/36/11 19/37/11
f 24/32/12 18/38/12 22/34/12
f 26/39/13 27/40/13 25/41/13
f 28/42/14 31/43/14 27/40/14
f 32/44/15 29/45/15 31/43/15
f 30/46/16 25/47/16 29/45/16
f 31/43/11 25/48/11 27/49/11
f 32/44/12 26/50/12 30/46/12
f 34/51/16 35/52/16 33/53/16
f 36/54/13 39/55/13 35/52/13
f 40/56/14 37/57/14 39/55/14
f 38/58/15 33/59/15 37/57/15
f 35/60/11 37/57/11 33/61/11
f 36/62/12 38/58/12 40/56/12
f 42/63/16 43/64/16 41/65/16
f 44/66/13 47/67/13 43/64/13
f 48/68/14 45/69/14 47/67/14
f 46/70/15 41/71/15 45/69/15
f 43/72/11 45/69/11 41/73/11
f 44/74/12 46/70/12 48/68/12
f 50/75/16 51/76/16 49/77/16
f 52/78/13 55/79/13 51/76/13
f 56/80/14 53/81/14 55/79/14
f 54/82/15 49/83/15 53/81/15
f 51/84/11 53/81/11 49/85/11
f 52/86/12 54/82/12 56/80/12
f 58/87/17 59/88/17 57/89/17
f 60/90/18 63/91/18 59/88/18
f 64/92/19 61/93/19 63/91/19
f 62/94/20 57/95/20 61/93/20
f 59/96/11 61/93/11 57/97/11
f 60/98/12 62/94/12 64/92/12
f 67/99/16 76/100/16 71/101/16
f 66/102/14 69/103/14 65/104/14
f 70/105/15 67/99/15 69/103/15
f 70/105/12 78/106/12 68/107/12
f 72/108/16 66/102/16 65/104/16
f 76/100/21 73/109/21 71/101/21
f 78/110/22 74/111/22 73/109/22
f 77/112/23 72/108/23 74/113/23
f 69/103/11 73/114/11 74/115/11
f 81/116/16 90/117/16 85/118/16
f 80/119/13 83/120/13 79/121/13
f 84/122/14 81/116/14 83/120/14
f 84/122/12 92/123/12 82/124/12
f 86/125/16 80/119/16 79/121/16
f 90/117/24 87/126/24 85/118/24
f 92/127/25 88/128/25 87/126/25
f 91/129/26 86/125/26 88/130/26
f 83/120/11 87/131/11 88/132/11
f 10/15/7 12/18/7 11/16/7
f 12/18/8 16/20/8 15/19/8
f 16/20/9 14/22/9 13/21/9
f 14/22/10 10/133/10 9/23/10
f 15/19/11 13/21/11 9/24/11
f 12/26/12 10/134/12 14/22/12
f 18/27/13 20/30/13 19/28/13
f 20/30/14 24/32/14 23/31/14
f 24/32/15 22/34/15 21/33/15
f 22/34/16 18/135/16 17/35/16
f 23/31/11 21/33/11 17/36/11
f 24/32/12 20/136/12 18/38/12
f 26/39/13 28/42/13 27/40/13
f 28/42/14 32/44/14 31/43/14
f 32/44/15 30/46/15 29/45/15
f 30/46/16 26/137/16 25/47/16
f 31/43/11 29/45/11 25/48/11
f 32/44/12 28/138/12 26/50/12
f 34/51/16 36/54/16 35/52/16
f 36/54/13 40/56/13 39/55/13
f 40/56/14 38/58/14 37/57/14
f 38/58/15 34/139/15 33/59/15
f 35/60/11 39/55/11 37/57/11
f 36/62/12 34/140/12 38/58/12
f 42/63/16 44/66/16 43/64/16
f 44/66/13 48/68/13 47/67/13
f 48/68/14 46/70/14 45/69/14
f 46/70/15 42/141/15 41/71/15
f 43/72/11 47/67/11 45/69/11
f 44/74/12 42/142/12 46/70/12
f 50/75/16 52/78/16 51/76/16
f 52/78/13 56/80/13 55/79/13
f 56/80/14 54/82/14 53/81/14
f 54/82/15 50/143/15 49/83/15
f 51/84/11 55/79/11 53/81/11
f 52/86/12 50/144/12 54/82/12
f 58/87/17 60/90/17 59/88/17
f 60/90/18 64/92/18 63/91/18
f 64/92/19 62/94/19 61/93/19
f 62/94/20 58/145/20 57/95/20
f 59/96/11 63/91/11 61/93/11
f 60/98/12 58/146/12 62/94/12
f 67/99/16 68/107/16 76/100/16
f 66/102/14 70/105/14 69/103/14
f 70/105/15 68/107/15 67/99/15
f 70/105/16 66/147/16 75/148/16
f 70/105/12 75/148/12 77/149/12
f 78/106/16 76/100/16 68/107/16
f 70/105/12 77/149/12 78/106/12
f 72/108/16 75/150/16 66/102/16
f 76/100/21 78/110/21 73/109/21
f 78/110/22 77/151/22 74/111/22
f 77/112/23 75/150/23 72/108/23
f 72/152/16 65/153/16 69/103/16
f 67/99/16 71/101/16 73/114/16
f 74/115/11 72/152/11 69/103/11
f 69/103/11 67/99/11 73/114/11
f 81/116/16 82/124/16 90/117/16
f 80/119/13 84/122/13 83/120/13
f 84/122/14 82/124/14 81/116/14
f 84/122/16 80/154/16 89/155/16
f 84/122/12 89/155/12 91/156/12
f 92/123/16 90/117/16 82/124/16
f 84/122/12 91/156/12 92/123/12
f 86/125/16 89/157/16 80/119/16
f 90/117/24 92/127/24 87/126/24
f 92/127/25 91/158/25 88/128/25
f 91/129/26 89/157/26 86/125/26
f 86/159/16 79/160/16 83/120/16
f 81/116/16 85/118/16 87/131/16
f 88/132/11 86/159/11 83/120/11
f 83/120/11 81/116/11 87/131/11
